<?xml version="1.0" standalone="no"?>
<!DOCTYPE svg PUBLIC "-//W3C//DTD SVG 20010904//EN"
 "http://www.w3.org/TR/2001/REC-SVG-20010904/DTD/svg10.dtd">
<svg version="1.0" xmlns="http://www.w3.org/2000/svg"
 width="900.000000pt" height="903.000000pt" viewBox="0 0 900.000000 903.000000"
 preserveAspectRatio="xMidYMid meet">
<metadata>
Created by potrace 1.10, written by Peter Selinger 2001-2011
</metadata>
<g transform="translate(0.000000,903.000000) scale(0.100000,-0.100000)"
fill="#000000" stroke="none">
<path d="M4040 8810 c-196 -22 -267 -31 -280 -36 -8 -3 -53 -12 -100 -20 -47
-7 -114 -20 -150 -28 -36 -8 -87 -20 -115 -26 -27 -6 -58 -15 -67 -20 -10 -6
-24 -10 -31 -10 -21 0 -298 -86 -352 -110 -11 -5 -63 -25 -115 -45 -182 -71
-469 -213 -630 -312 -75 -46 -313 -204 -320 -213 -3 -3 -44 -35 -91 -71 -47
-36 -98 -77 -114 -90 -218 -183 -404 -368 -582 -582 -106 -126 -265 -350 -349
-490 -16 -27 -37 -61 -46 -75 -31 -49 -45 -76 -129 -242 -84 -164 -107 -215
-149 -320 -12 -30 -29 -69 -36 -87 -8 -17 -14 -37 -14 -45 0 -8 -4 -18 -8 -24
-9 -10 -56 -149 -91 -274 -12 -41 -26 -89 -31 -106 -6 -16 -14 -50 -20 -75 -5
-24 -16 -75 -25 -114 -13 -61 -27 -144 -76 -460 -17 -104 -24 -658 -10 -795
29 -303 74 -563 131 -770 88 -323 166 -528 306 -815 74 -151 240 -445 263
-465 3 -3 24 -32 46 -65 136 -206 289 -389 518 -620 202 -204 414 -384 597
-505 12 -8 32 -22 44 -32 98 -74 526 -308 711 -388 11 -5 41 -18 67 -29 26
-12 54 -21 62 -21 8 0 17 -4 21 -9 3 -5 19 -12 36 -16 17 -4 42 -13 57 -21 15
-8 33 -14 40 -14 7 0 20 -4 30 -9 17 -9 93 -33 207 -66 33 -9 71 -20 85 -25
14 -5 70 -18 125 -30 55 -11 116 -25 135 -30 63 -17 311 -52 490 -70 123 -12
607 -12 730 0 177 18 426 53 490 70 19 5 69 16 110 25 75 16 111 26 250 66 96
27 249 77 275 89 11 5 63 25 115 45 256 99 577 267 800 420 161 110 196 136
235 170 22 19 43 35 46 35 3 0 17 9 30 21 13 11 44 37 69 57 24 21 65 55 90
77 74 64 342 333 388 388 23 29 54 66 68 82 14 17 47 57 72 90 26 33 51 65 57
71 14 16 82 111 145 204 57 83 140 217 140 227 0 6 4 13 8 15 18 7 218 410
277 558 10 25 24 59 31 77 8 17 14 36 14 42 0 6 4 19 10 29 16 31 76 221 120
382 6 19 19 76 30 125 11 50 24 110 30 135 25 109 56 352 71 550 12 164 6 627
-10 717 -6 32 -15 99 -21 148 -16 134 -47 303 -84 450 -8 33 -20 80 -26 105
-6 25 -14 56 -19 70 -5 14 -26 79 -46 145 -21 66 -42 124 -46 129 -5 6 -9 17
-9 25 0 9 -7 29 -15 45 -8 15 -15 33 -15 38 0 5 -9 30 -21 56 -11 26 -24 56
-29 67 -28 65 -86 188 -112 240 -17 33 -42 83 -56 110 -39 76 -155 270 -164
273 -4 2 -8 8 -8 13 0 7 -86 140 -113 174 -4 6 -32 43 -61 82 -114 155 -273
340 -407 472 -77 77 -196 187 -249 231 -36 30 -67 58 -70 61 -14 17 -267 203
-345 253 -49 32 -102 67 -117 77 -15 11 -30 19 -33 19 -3 0 -24 12 -48 27 -23
15 -60 38 -82 50 -39 23 -371 187 -410 204 -11 4 -40 17 -65 27 -102 44 -320
120 -430 151 -41 12 -88 26 -105 31 -160 48 -473 104 -725 130 -101 10 -707
10 -800 0z m680 -50 c257 -25 310 -31 395 -44 152 -25 313 -59 425 -89 30 -9
75 -21 100 -27 25 -6 54 -15 65 -20 11 -5 54 -18 95 -31 41 -13 79 -26 84 -31
6 -4 17 -8 25 -8 9 0 29 -7 45 -15 15 -8 33 -15 38 -15 8 0 40 -13 123 -50 11
-5 43 -19 70 -30 171 -73 459 -232 649 -358 67 -44 316 -229 326 -241 3 -4 27
-25 54 -46 54 -44 168 -148 255 -235 208 -207 386 -424 541 -660 27 -41 54
-80 60 -87 5 -7 10 -14 10 -17 0 -3 13 -24 29 -48 49 -73 221 -404 260 -499 7
-19 20 -47 27 -64 7 -16 22 -55 34 -85 11 -30 24 -64 29 -75 5 -11 19 -49 31
-85 12 -36 25 -74 30 -85 8 -22 28 -91 60 -205 51 -184 77 -307 100 -480 6
-41 15 -95 20 -120 5 -25 14 -130 20 -235 5 -104 13 -210 16 -234 6 -40 -5
-235 -26 -486 -15 -170 -50 -391 -84 -530 -56 -227 -66 -266 -76 -290 -4 -11
-18 -51 -30 -90 -26 -83 -94 -271 -122 -335 -66 -151 -164 -350 -215 -436 -24
-39 -43 -76 -43 -82 0 -6 -4 -12 -8 -14 -5 -1 -32 -43 -62 -93 -29 -49 -56
-92 -59 -95 -3 -3 -15 -18 -27 -35 -85 -125 -120 -172 -140 -194 -13 -14 -24
-29 -24 -32 0 -3 -9 -17 -21 -30 -11 -13 -37 -44 -57 -69 -193 -234 -489 -515
-735 -696 -39 -29 -77 -57 -82 -61 -56 -43 -270 -179 -360 -228 -38 -21 -90
-49 -115 -63 -56 -31 -142 -74 -195 -97 -22 -10 -67 -31 -101 -46 -33 -16 -64
-29 -68 -29 -8 0 -90 -35 -116 -49 -9 -5 -31 -12 -50 -16 -19 -4 -39 -10 -45
-14 -5 -4 -44 -17 -85 -30 -41 -12 -84 -27 -95 -32 -11 -5 -38 -13 -60 -18
-22 -6 -67 -17 -100 -26 -302 -83 -658 -131 -1025 -141 -377 -11 -900 60
-1265 170 -27 8 -68 20 -90 26 -22 6 -49 15 -60 19 -11 5 -49 19 -85 31 -36
12 -74 26 -85 31 -11 5 -45 18 -75 29 -60 23 -60 22 -175 75 -74 34 -225 108
-271 133 -61 34 -305 180 -335 201 -20 15 -47 33 -59 41 -35 24 -274 202 -280
209 -3 4 -27 25 -54 46 -130 104 -364 338 -496 495 -30 36 -58 67 -61 70 -3 3
-49 64 -102 135 -53 72 -100 135 -105 140 -4 6 -19 28 -32 50 -13 22 -27 42
-30 45 -29 23 -239 405 -300 545 -12 28 -33 73 -46 101 -13 28 -24 55 -24 60
0 5 -6 20 -13 34 -7 14 -23 54 -36 90 -13 36 -27 74 -31 85 -5 11 -19 52 -30
90 -12 39 -26 79 -30 90 -8 20 -17 51 -46 168 -8 31 -21 85 -30 120 -43 175
-75 386 -100 667 -35 406 17 964 131 1385 9 33 20 78 26 100 12 46 96 301 109
330 5 11 19 45 30 75 33 82 35 88 75 175 34 74 108 225 133 271 47 86 186 314
230 379 51 73 208 283 221 295 3 3 24 27 46 55 59 73 127 146 245 265 141 141
187 183 375 338 11 10 31 24 45 33 14 9 35 25 47 35 11 11 31 26 43 34 12 8
47 33 78 56 32 22 86 58 122 79 36 21 67 41 70 44 6 8 39 28 65 41 11 6 47 26
80 45 97 56 444 225 461 225 3 0 24 8 47 19 89 39 386 141 412 141 9 0 23 4
33 10 9 5 40 14 67 20 28 6 77 18 110 26 151 36 337 68 500 85 55 6 134 14
175 18 110 12 459 13 580 1z"/>
<path d="M4785 6268 c-38 -4 -99 -15 -135 -23 -36 -8 -74 -15 -85 -15 -11 0
-33 -7 -49 -15 -15 -8 -37 -15 -47 -15 -10 0 -35 -7 -56 -16 -21 -9 -51 -23
-68 -29 -38 -16 -115 -53 -135 -65 -8 -5 -22 -11 -30 -15 -49 -19 -189 -118
-275 -193 -104 -90 -285 -300 -285 -330 0 -6 -4 -12 -8 -14 -16 -6 -119 -203
-157 -298 -38 -98 -54 -147 -85 -268 -31 -119 -50 -309 -50 -490 1 -170 5
-222 30 -377 31 -196 124 -455 211 -590 10 -16 22 -37 26 -45 30 -63 138 -203
225 -292 72 -73 208 -188 223 -188 4 0 24 -12 44 -27 68 -52 209 -123 326
-166 96 -35 112 -40 150 -47 22 -4 58 -12 80 -17 162 -43 610 -39 790 6 95 24
160 43 193 57 18 8 39 14 47 14 31 0 203 84 283 138 35 23 66 42 70 42 12 0
201 165 234 205 18 22 40 46 48 55 21 21 110 137 110 143 0 3 16 29 36 58 20
30 56 96 81 146 25 51 49 96 54 99 5 3 9 20 9 38 l0 34 -120 -2 -120 -1 -15
-32 c-8 -18 -22 -50 -31 -70 -9 -21 -20 -45 -25 -53 -5 -8 -13 -24 -18 -35 -5
-11 -21 -37 -35 -58 -14 -21 -26 -40 -26 -44 0 -38 -303 -331 -380 -366 -8 -4
-28 -16 -45 -27 -16 -11 -37 -23 -45 -26 -8 -3 -42 -19 -75 -35 -33 -16 -66
-29 -74 -29 -7 0 -25 -6 -39 -14 -31 -16 -96 -34 -167 -46 -27 -5 -64 -13 -81
-18 -89 -28 -465 -22 -614 9 -91 18 -257 73 -274 90 -6 5 -20 9 -32 9 -13 0
-26 5 -29 11 -4 5 -17 15 -28 20 -84 37 -236 149 -332 246 -118 117 -239 291
-294 423 -13 30 -27 59 -32 64 -5 6 -9 19 -9 31 0 12 -7 30 -15 41 -8 10 -14
28 -15 39 0 11 -6 40 -14 65 -22 69 -44 178 -51 250 -4 36 -8 79 -10 95 -20
147 -17 234 15 490 9 75 36 204 49 236 5 13 19 54 30 92 11 37 25 75 29 85 5
9 17 35 27 57 9 22 21 47 26 55 4 8 20 38 35 65 55 103 129 199 230 299 110
108 175 161 234 189 8 4 29 16 45 27 17 11 37 22 45 26 8 3 22 10 30 15 8 5
22 12 30 15 8 3 29 12 45 19 76 33 206 75 233 75 12 0 47 7 79 15 69 18 504
22 549 5 15 -6 52 -15 83 -20 159 -25 341 -100 501 -206 61 -40 227 -193 280
-259 66 -81 129 -192 193 -337 l17 -38 125 0 c97 0 125 3 125 13 0 14 -97 210
-130 262 -39 61 -50 80 -56 98 -3 9 -10 17 -15 17 -6 0 -13 8 -17 19 -17 43
-209 250 -287 308 -83 63 -121 90 -135 96 -8 4 -28 16 -45 27 -70 45 -263 131
-330 146 -11 3 -42 11 -70 19 -203 55 -524 79 -730 53z"/>
<path d="M2400 6250 c0 -3 -1 -797 -1 -1765 l0 -1760 116 -3 115 -3 -2 1767
-3 1766 -113 2 c-61 0 -112 -1 -112 -4z"/>
</g>
</svg>
